<?xml version="1.0" standalone="no"?>
<!DOCTYPE svg PUBLIC "-//W3C//DTD SVG 1.1//EN" "http://www.w3.org/Graphics/SVG/1.1/DTD/svg11.dtd">
<svg width="70" height="64" viewBox="-36 -32 70 64" xmlns="http://www.w3.org/2000/svg" version="1.1">
<title>OpenSCAD Model</title>
<path d="
M -35.375,5 L -16,5 L -16,15.145 L -20.7862,15.145 L -20.8179,15.1083 L -21.0717,14.8417
 L -21.3383,14.5879 L -21.6171,14.3474 L -21.9073,14.1209 L -22.2082,13.909 L -22.5192,13.712 L -22.8395,13.5306
 L -23.1683,13.3651 L -23.5049,13.2159 L -23.8483,13.0834 L -24.1979,12.9679 L -24.5526,12.8698 L -24.9118,12.7891
 L -25.2745,12.7262 L -25.6399,12.6811 L -26.007,12.654 L -26.375,12.645 L -26.743,12.654 L -27.1101,12.6811
 L -27.4755,12.7262 L -27.8382,12.7891 L -28.1974,12.8698 L -28.5521,12.9679 L -28.9017,13.0834 L -29.2451,13.2159
 L -29.5817,13.3651 L -29.9105,13.5306 L -30.2308,13.712 L -30.5418,13.909 L -30.8427,14.1209 L -31.1329,14.3474
 L -31.4117,14.5879 L -31.6783,14.8417 L -31.9321,15.1083 L -32.1726,15.387 L -32.3991,15.6773 L -32.611,15.9782
 L -32.808,16.2892 L -32.9894,16.6095 L -33.1549,16.9383 L -33.3041,17.2749 L -33.4366,17.6183 L -33.5521,17.9679
 L -33.6502,18.3226 L -33.7309,18.6818 L -33.7938,19.0445 L -33.8389,19.4099 L -33.866,19.777 L -33.875,20.145
 L -33.866,20.513 L -33.8389,20.8801 L -33.7938,21.2455 L -33.7309,21.6082 L -33.6502,21.9674 L -33.5521,22.3221
 L -33.4366,22.6717 L -33.3041,23.0151 L -33.1549,23.3517 L -32.9894,23.6805 L -32.808,24.0008 L -32.611,24.3118
 L -32.3991,24.6127 L -32.1726,24.9029 L -31.9321,25.1817 L -31.6783,25.4483 L -31.4117,25.7021 L -31.1329,25.9426
 L -30.8427,26.1691 L -30.5418,26.381 L -30.2308,26.578 L -29.9105,26.7594 L -29.5817,26.9249 L -29.2451,27.0741
 L -28.9017,27.2066 L -28.5521,27.3221 L -28.1974,27.4202 L -27.8382,27.5009 L -27.4755,27.5638 L -27.1101,27.6089
 L -26.743,27.636 L -26.375,27.645 L -26.007,27.636 L -25.6399,27.6089 L -25.2745,27.5638 L -24.9118,27.5009
 L -24.5526,27.4202 L -24.1979,27.3221 L -23.8483,27.2066 L -23.5049,27.0741 L -23.1683,26.9249 L -22.8395,26.7594
 L -22.5192,26.578 L -22.2082,26.381 L -21.9073,26.1691 L -21.6171,25.9426 L -21.3383,25.7021 L -21.0717,25.4483
 L -20.8179,25.1817 L -20.7862,25.145 L -17.5464,25.145 L -17.5421,25.3214 L -17.5185,25.642 L -17.4791,25.9611
 L -17.4241,26.2778 L -17.3537,26.5915 L -17.268,26.9014 L -17.1671,27.2066 L -17.0514,27.5066 L -16.9211,27.8005
 L -16.7766,28.0876 L -16.6181,28.3674 L -16.4461,28.639 L -16.261,28.9018 L -16.0632,29.1553 L -15.8532,29.3987
 L -15.6315,29.6315 L -15.3987,29.8532 L -15.1553,30.0632 L -14.9018,30.261 L -14.639,30.4461 L -14.3674,30.6181
 L -14.0876,30.7766 L -13.8005,30.9211 L -13.5066,31.0514 L -13.2066,31.1671 L -12.9014,31.268 L -12.5915,31.3537
 L -12.2778,31.4241 L -11.9611,31.4791 L -11.642,31.5185 L -11.3214,31.5421 L -11,31.55 L -10.6786,31.5421
 L -10.358,31.5185 L -10.0389,31.4791 L -9.72216,31.4241 L -9.40848,31.3537 L -9.09863,31.268 L -8.79337,31.1671
 L -8.49342,31.0514 L -8.19951,30.9211 L -7.91235,30.7766 L -7.63263,30.6181 L -7.36101,30.4461 L -7.09817,30.261
 L -6.84472,30.0632 L -6.60129,29.8532 L -6.36845,29.6315 L -6.14677,29.3987 L -5.93678,29.1553 L -5.73899,28.9018
 L -5.55387,28.639 L -5.38188,28.3674 L -5.22342,28.0876 L -5.07887,27.8005 L -4.94859,27.5066 L -4.83289,27.2066
 L -4.73204,26.9014 L -4.64629,26.5915 L -4.57586,26.2778 L -4.52089,25.9611 L -4.48154,25.642 L -4.45789,25.3214
 L -4.45356,25.145 L 20.7862,25.145 L 20.8179,25.1817 L 21.0717,25.4483 L 21.3383,25.7021 L 21.6171,25.9426
 L 21.9073,26.1691 L 22.2082,26.381 L 22.5192,26.578 L 22.8395,26.7594 L 23.1683,26.9249 L 23.5049,27.0741
 L 23.8483,27.2066 L 24.1979,27.3221 L 24.5526,27.4202 L 24.9118,27.5009 L 25.2745,27.5638 L 25.6399,27.6089
 L 26.007,27.636 L 26.375,27.645 L 26.743,27.636 L 27.1101,27.6089 L 27.4755,27.5638 L 27.8382,27.5009
 L 28.1974,27.4202 L 28.5521,27.3221 L 28.9017,27.2066 L 29.2451,27.0741 L 29.5817,26.9249 L 29.9105,26.7594
 L 30.2308,26.578 L 30.5418,26.381 L 30.8427,26.1691 L 31.1329,25.9426 L 31.4117,25.7021 L 31.6783,25.4483
 L 31.9321,25.1817 L 32.1726,24.9029 L 32.3991,24.6127 L 32.611,24.3118 L 32.808,24.0008 L 32.9894,23.6805
 L 33.1549,23.3517 L 33.3041,23.0151 L 33.4366,22.6717 L 33.5521,22.3221 L 33.6502,21.9674 L 33.7309,21.6082
 L 33.7938,21.2455 L 33.8389,20.8801 L 33.866,20.513 L 33.875,20.145 L 33.866,19.777 L 33.8389,19.4099
 L 33.7938,19.0445 L 33.7309,18.6818 L 33.6502,18.3226 L 33.5521,17.9679 L 33.4366,17.6183 L 33.3041,17.2749
 L 33.1549,16.9383 L 32.9894,16.6095 L 32.808,16.2892 L 32.611,15.9782 L 32.3991,15.6773 L 32.1726,15.387
 L 31.9321,15.1083 L 31.6783,14.8417 L 31.4117,14.5879 L 31.1329,14.3474 L 30.8427,14.1209 L 30.5418,13.909
 L 30.2308,13.712 L 29.9105,13.5306 L 29.5817,13.3651 L 29.2451,13.2159 L 28.9017,13.0834 L 28.5521,12.9679
 L 28.1974,12.8698 L 27.8382,12.7891 L 27.4755,12.7262 L 27.1101,12.6811 L 26.743,12.654 L 26.375,12.645
 L 26.007,12.654 L 25.6399,12.6811 L 25.3084,12.722 L 12.569,-14.5978 L 12.6479,-14.6892 L 12.9076,-15.022
 L 13.1506,-15.3671 L 13.3765,-15.7237 L 13.5845,-16.091 L 13.7743,-16.468 L 13.9454,-16.8539 L 14.0973,-17.2477
 L 14.2297,-17.6486 L 14.3423,-18.0554 L 14.4348,-18.4672 L 14.5069,-18.8831 L 14.5586,-19.3021 L 14.5896,-19.723
 L 14.6,-20.145 L 14.5896,-20.567 L 14.5586,-20.9879 L 14.5069,-21.4069 L 14.4348,-21.8228 L 14.3423,-22.2346
 L 14.2297,-22.6414 L 14.0973,-23.0423 L 13.9454,-23.4361 L 13.7743,-23.822 L 13.5845,-24.199 L 13.3765,-24.5663
 L 13.1506,-24.9229 L 12.9076,-25.268 L 12.6479,-25.6008 L 12.3722,-25.9204 L 12.0811,-26.2261 L 11.7754,-26.5172
 L 11.4558,-26.7929 L 11.123,-27.0526 L 10.7779,-27.2956 L 10.4213,-27.5215 L 10.054,-27.7295 L 9.67697,-27.9193
 L 9.29108,-28.0904 L 8.89725,-28.2423 L 8.49645,-28.3747 L 8.08963,-28.4873 L 7.67778,-28.5798 L 7.26188,-28.6519
 L 6.84295,-28.7036 L 6.42198,-28.7346 L 6,-28.745 L 5.57802,-28.7346 L 5.15705,-28.7036 L 4.73812,-28.6519
 L 4.32222,-28.5798 L 3.91037,-28.4873 L 3.50355,-28.3747 L 3.10275,-28.2423 L 2.70892,-28.0904 L 2.32303,-27.9193
 L 1.94599,-27.7295 L 1.57872,-27.5215 L 1.2221,-27.2956 L 0.876986,-27.0526 L 0.544217,-26.7929 L 0.452677,-26.7139
 L -5.81058,-28.9936 L -5.93678,-29.1553 L -6.14677,-29.3987 L -6.36845,-29.6315 L -6.60129,-29.8532 L -6.84472,-30.0632
 L -7.09817,-30.261 L -7.36101,-30.4461 L -7.63263,-30.6181 L -7.91235,-30.7766 L -8.19951,-30.9211 L -8.49342,-31.0514
 L -8.79337,-31.1671 L -9.09863,-31.268 L -9.40848,-31.3537 L -9.72216,-31.4241 L -10.0389,-31.4791 L -10.358,-31.5185
 L -10.6786,-31.5421 L -11,-31.55 L -11.3214,-31.5421 L -11.642,-31.5185 L -11.9611,-31.4791 L -12.2778,-31.4241
 L -12.5915,-31.3537 L -12.9014,-31.268 L -13.2066,-31.1671 L -13.5066,-31.0514 L -13.8005,-30.9211 L -14.0876,-30.7766
 L -14.3674,-30.6181 L -14.639,-30.4461 L -14.9018,-30.261 L -15.1553,-30.0632 L -15.3987,-29.8532 L -15.6315,-29.6315
 L -15.8532,-29.3987 L -16.0632,-29.1553 L -16.261,-28.9018 L -16.4461,-28.639 L -16.6181,-28.3674 L -16.7766,-28.0876
 L -16.9211,-27.8005 L -17.0514,-27.5066 L -17.1671,-27.2066 L -17.268,-26.9014 L -17.3537,-26.5915 L -17.4241,-26.2778
 L -17.4791,-25.9611 L -17.5185,-25.642 L -17.5421,-25.3214 L -17.55,-25 L -17.5421,-24.6786 L -17.5185,-24.358
 L -17.4791,-24.0389 L -17.4241,-23.7222 L -17.3537,-23.4085 L -17.268,-23.0986 L -17.1671,-22.7934 L -17.0514,-22.4934
 L -16.9211,-22.1995 L -16.7766,-21.9124 L -16.6181,-21.6326 L -16.4461,-21.361 L -16.261,-21.0982 L -16.0632,-20.8447
 L -16,-20.7714 L -16,-14.2286 L -16.0632,-14.1553 L -16.261,-13.9018 L -16.4461,-13.639 L -16.6181,-13.3674
 L -16.7766,-13.0876 L -16.9211,-12.8005 L -17.0514,-12.5066 L -17.1671,-12.2066 L -17.268,-11.9014 L -17.3537,-11.5915
 L -17.4241,-11.2778 L -17.4791,-10.9611 L -17.5185,-10.642 L -17.5421,-10.3214 L -17.55,-10 L -17.5421,-9.67861
 L -17.5185,-9.35799 L -17.4791,-9.03891 L -17.4241,-8.72216 L -17.3537,-8.40848 L -17.268,-8.09863 L -17.1671,-7.79337
 L -17.0514,-7.49342 L -16.9211,-7.19951 L -16.7766,-6.91235 L -16.6181,-6.63263 L -16.4461,-6.36101 L -16.261,-6.09817
 L -16.0632,-5.84472 L -16,-5.77144 L -16,-5 L -35.375,-5 z
M -31.925,-0 L -31.9231,-0.0760546 L -31.9175,-0.151926 L -31.9082,-0.227431 L -31.8952,-0.302389 L -31.8785,-0.376618
 L -31.8583,-0.449941 L -31.8344,-0.522179 L -31.807,-0.593159 L -31.7762,-0.66271 L -31.742,-0.730664 L -31.7045,-0.796859
 L -31.6638,-0.861134 L -31.62,-0.923333 L -31.5732,-0.983309 L -31.5235,-1.04092 L -31.471,-1.09601 L -31.4159,-1.14847
 L -31.3583,-1.19817 L -31.2983,-1.24497 L -31.2361,-1.28878 L -31.1719,-1.32948 L -31.1057,-1.36698 L -31.0377,-1.40118
 L -30.9682,-1.43201 L -30.8972,-1.45939 L -30.8249,-1.48326 L -30.7516,-1.50355 L -30.6774,-1.52022 L -30.6024,-1.53322
 L -30.5269,-1.54254 L -30.4511,-1.54813 L -30.375,-1.55 L -30.2989,-1.54813 L -30.2231,-1.54254 L -30.1476,-1.53322
 L -30.0726,-1.52022 L -29.9984,-1.50355 L -29.9251,-1.48326 L -29.8528,-1.45939 L -29.7818,-1.43201 L -29.7123,-1.40118
 L -29.6443,-1.36698 L -29.5781,-1.32948 L -29.5139,-1.28878 L -29.4517,-1.24497 L -29.3917,-1.19817 L -29.3341,-1.14847
 L -29.279,-1.09601 L -29.2265,-1.04092 L -29.1768,-0.983309 L -29.13,-0.923333 L -29.0862,-0.861134 L -29.0455,-0.796859
 L -29.008,-0.730664 L -28.9738,-0.66271 L -28.943,-0.593159 L -28.9156,-0.522179 L -28.8917,-0.449941 L -28.8715,-0.376618
 L -28.8548,-0.302389 L -28.8418,-0.227431 L -28.8325,-0.151926 L -28.8269,-0.0760546 L -28.825,-0 L -28.8269,0.0760546
 L -28.8325,0.151926 L -28.8418,0.227431 L -28.8548,0.302389 L -28.8715,0.376618 L -28.8917,0.449941 L -28.9156,0.522179
 L -28.943,0.593159 L -28.9738,0.66271 L -29.008,0.730664 L -29.0455,0.796859 L -29.0862,0.861134 L -29.13,0.923333
 L -29.1768,0.983309 L -29.2265,1.04092 L -29.279,1.09601 L -29.3341,1.14847 L -29.3917,1.19817 L -29.4517,1.24497
 L -29.5139,1.28878 L -29.5781,1.32948 L -29.6443,1.36698 L -29.7123,1.40118 L -29.7818,1.43201 L -29.8528,1.45939
 L -29.9251,1.48326 L -29.9984,1.50355 L -30.0726,1.52022 L -30.1476,1.53322 L -30.2231,1.54254 L -30.2989,1.54813
 L -30.375,1.55 L -30.4511,1.54813 L -30.5269,1.54254 L -30.6024,1.53322 L -30.6774,1.52022 L -30.7516,1.50355
 L -30.8249,1.48326 L -30.8972,1.45939 L -30.9682,1.43201 L -31.0377,1.40118 L -31.1057,1.36698 L -31.1719,1.32948
 L -31.2361,1.28878 L -31.2983,1.24497 L -31.3583,1.19817 L -31.4159,1.14847 L -31.471,1.09601 L -31.5235,1.04092
 L -31.5732,0.983309 L -31.62,0.923333 L -31.6638,0.861134 L -31.7045,0.796859 L -31.742,0.730664 L -31.7762,0.66271
 L -31.807,0.593159 L -31.8344,0.522179 L -31.8583,0.449941 L -31.8785,0.376618 L -31.8952,0.302389 L -31.9082,0.227431
 L -31.9175,0.151926 L -31.9231,0.0760546 z
M -28.875,20.145 L -28.872,20.0223 L -28.863,19.9 L -28.8479,19.7782 L -28.827,19.6573 L -28.8001,19.5375
 L -28.7674,19.4193 L -28.7289,19.3028 L -28.6847,19.1883 L -28.635,19.0761 L -28.5798,18.9665 L -28.5193,18.8597
 L -28.4537,18.7561 L -28.383,18.6558 L -28.3075,18.559 L -28.2274,18.4661 L -28.1428,18.3772 L -28.0539,18.2926
 L -27.961,18.2125 L -27.8642,18.137 L -27.7639,18.0663 L -27.6603,18.0007 L -27.5535,17.9402 L -27.4439,17.885
 L -27.3317,17.8353 L -27.2172,17.7911 L -27.1007,17.7526 L -26.9824,17.7199 L -26.8627,17.693 L -26.7418,17.6721
 L -26.62,17.657 L -26.4977,17.648 L -26.375,17.645 L -26.2523,17.648 L -26.13,17.657 L -26.0082,17.6721
 L -25.8873,17.693 L -25.7675,17.7199 L -25.6493,17.7526 L -25.5328,17.7911 L -25.4183,17.8353 L -25.3061,17.885
 L -25.1965,17.9402 L -25.0897,18.0007 L -24.9861,18.0663 L -24.8858,18.137 L -24.789,18.2125 L -24.6961,18.2926
 L -24.6072,18.3772 L -24.5226,18.4661 L -24.4425,18.559 L -24.367,18.6558 L -24.2963,18.7561 L -24.2307,18.8597
 L -24.1702,18.9665 L -24.115,19.0761 L -24.0653,19.1883 L -24.0211,19.3028 L -23.9826,19.4193 L -23.9499,19.5375
 L -23.923,19.6573 L -23.9021,19.7782 L -23.887,19.9 L -23.878,20.0223 L -23.875,20.145 L -23.878,20.2677
 L -23.887,20.39 L -23.9021,20.5118 L -23.923,20.6327 L -23.9499,20.7524 L -23.9826,20.8707 L -24.0211,20.9872
 L -24.0653,21.1017 L -24.115,21.2139 L -24.1702,21.3235 L -24.2307,21.4303 L -24.2963,21.5339 L -24.367,21.6342
 L -24.4425,21.731 L -24.5226,21.8239 L -24.6072,21.9128 L -24.6961,21.9974 L -24.789,22.0775 L -24.8858,22.153
 L -24.9861,22.2237 L -25.0897,22.2893 L -25.1965,22.3498 L -25.3061,22.405 L -25.4183,22.4547 L -25.5328,22.4989
 L -25.6493,22.5374 L -25.7675,22.5701 L -25.8873,22.597 L -26.0082,22.6179 L -26.13,22.633 L -26.2523,22.642
 L -26.375,22.645 L -26.4977,22.642 L -26.62,22.633 L -26.7418,22.6179 L -26.8627,22.597 L -26.9824,22.5701
 L -27.1007,22.5374 L -27.2172,22.4989 L -27.3317,22.4547 L -27.4439,22.405 L -27.5535,22.3498 L -27.6603,22.2893
 L -27.7639,22.2237 L -27.8642,22.153 L -27.961,22.0775 L -28.0539,21.9974 L -28.1428,21.9128 L -28.2274,21.8239
 L -28.3075,21.731 L -28.383,21.6342 L -28.4537,21.5339 L -28.5193,21.4303 L -28.5798,21.3235 L -28.635,21.2139
 L -28.6847,21.1017 L -28.7289,20.9872 L -28.7674,20.8707 L -28.8001,20.7524 L -28.827,20.6327 L -28.8479,20.5118
 L -28.863,20.39 L -28.872,20.2677 z
M -12.55,25 L -12.5481,24.9239 L -12.5425,24.8481 L -12.5332,24.7726 L -12.5202,24.6976 L -12.5035,24.6234
 L -12.4833,24.5501 L -12.4594,24.4778 L -12.432,24.4068 L -12.4012,24.3373 L -12.367,24.2693 L -12.3295,24.2031
 L -12.2888,24.1389 L -12.245,24.0767 L -12.1982,24.0167 L -12.1485,23.9591 L -12.096,23.904 L -12.0409,23.8515
 L -11.9833,23.8018 L -11.9233,23.755 L -11.8611,23.7112 L -11.7969,23.6705 L -11.7307,23.633 L -11.6627,23.5988
 L -11.5932,23.568 L -11.5222,23.5406 L -11.4499,23.5167 L -11.3766,23.4965 L -11.3024,23.4798 L -11.2274,23.4668
 L -11.1519,23.4575 L -11.0761,23.4519 L -11,23.45 L -10.9239,23.4519 L -10.8481,23.4575 L -10.7726,23.4668
 L -10.6976,23.4798 L -10.6234,23.4965 L -10.5501,23.5167 L -10.4778,23.5406 L -10.4068,23.568 L -10.3373,23.5988
 L -10.2693,23.633 L -10.2031,23.6705 L -10.1389,23.7112 L -10.0767,23.755 L -10.0167,23.8018 L -9.95908,23.8515
 L -9.90398,23.904 L -9.85153,23.9591 L -9.80183,24.0167 L -9.75503,24.0767 L -9.71122,24.1389 L -9.67052,24.2031
 L -9.63302,24.2693 L -9.59882,24.3373 L -9.56799,24.4068 L -9.54061,24.4778 L -9.51674,24.5501 L -9.49645,24.6234
 L -9.47978,24.6976 L -9.46678,24.7726 L -9.45746,24.8481 L -9.45187,24.9239 L -9.45,25 L -9.45187,25.0761
 L -9.45746,25.1519 L -9.46678,25.2274 L -9.47978,25.3024 L -9.49645,25.3766 L -9.51674,25.4499 L -9.54061,25.5222
 L -9.56799,25.5932 L -9.59882,25.6627 L -9.63302,25.7307 L -9.67052,25.7969 L -9.71122,25.8611 L -9.75503,25.9233
 L -9.80183,25.9833 L -9.85153,26.0409 L -9.90398,26.096 L -9.95908,26.1485 L -10.0167,26.1982 L -10.0767,26.245
 L -10.1389,26.2888 L -10.2031,26.3295 L -10.2693,26.367 L -10.3373,26.4012 L -10.4068,26.432 L -10.4778,26.4594
 L -10.5501,26.4833 L -10.6234,26.5035 L -10.6976,26.5202 L -10.7726,26.5332 L -10.8481,26.5425 L -10.9239,26.5481
 L -11,26.55 L -11.0761,26.5481 L -11.1519,26.5425 L -11.2274,26.5332 L -11.3024,26.5202 L -11.3766,26.5035
 L -11.4499,26.4833 L -11.5222,26.4594 L -11.5932,26.432 L -11.6627,26.4012 L -11.7307,26.367 L -11.7969,26.3295
 L -11.8611,26.2888 L -11.9233,26.245 L -11.9833,26.1982 L -12.0409,26.1485 L -12.096,26.096 L -12.1485,26.0409
 L -12.1982,25.9833 L -12.245,25.9233 L -12.2888,25.8611 L -12.3295,25.7969 L -12.367,25.7307 L -12.4012,25.6627
 L -12.432,25.5932 L -12.4594,25.5222 L -12.4833,25.4499 L -12.5035,25.3766 L -12.5202,25.3024 L -12.5332,25.2274
 L -12.5425,25.1519 L -12.5481,25.0761 z
M -12.55,-10 L -12.5481,-10.0761 L -12.5425,-10.1519 L -12.5332,-10.2274 L -12.5202,-10.3024 L -12.5035,-10.3766
 L -12.4833,-10.4499 L -12.4594,-10.5222 L -12.432,-10.5932 L -12.4012,-10.6627 L -12.367,-10.7307 L -12.3295,-10.7969
 L -12.2888,-10.8611 L -12.245,-10.9233 L -12.1982,-10.9833 L -12.1485,-11.0409 L -12.096,-11.096 L -12.0409,-11.1485
 L -11.9833,-11.1982 L -11.9233,-11.245 L -11.8611,-11.2888 L -11.7969,-11.3295 L -11.7307,-11.367 L -11.6627,-11.4012
 L -11.5932,-11.432 L -11.5222,-11.4594 L -11.4499,-11.4833 L -11.3766,-11.5035 L -11.3024,-11.5202 L -11.2274,-11.5332
 L -11.1519,-11.5425 L -11.0761,-11.5481 L -11,-11.55 L -10.9239,-11.5481 L -10.8481,-11.5425 L -10.7726,-11.5332
 L -10.6976,-11.5202 L -10.6234,-11.5035 L -10.5501,-11.4833 L -10.4778,-11.4594 L -10.4068,-11.432 L -10.3373,-11.4012
 L -10.2693,-11.367 L -10.2031,-11.3295 L -10.1389,-11.2888 L -10.0767,-11.245 L -10.0167,-11.1982 L -9.95908,-11.1485
 L -9.90398,-11.096 L -9.85153,-11.0409 L -9.80183,-10.9833 L -9.75503,-10.9233 L -9.71122,-10.8611 L -9.67052,-10.7969
 L -9.63302,-10.7307 L -9.59882,-10.6627 L -9.56799,-10.5932 L -9.54061,-10.5222 L -9.51674,-10.4499 L -9.49645,-10.3766
 L -9.47978,-10.3024 L -9.46678,-10.2274 L -9.45746,-10.1519 L -9.45187,-10.0761 L -9.45,-10 L -9.45187,-9.92394
 L -9.45746,-9.84807 L -9.46678,-9.77257 L -9.47978,-9.69761 L -9.49645,-9.62338 L -9.51674,-9.55006 L -9.54061,-9.47782
 L -9.56799,-9.40684 L -9.59882,-9.33729 L -9.63302,-9.26933 L -9.67052,-9.20314 L -9.71122,-9.13887 L -9.75503,-9.07667
 L -9.80183,-9.01669 L -9.85153,-8.95908 L -9.90398,-8.90398 L -9.95908,-8.85153 L -10.0167,-8.80183 L -10.0767,-8.75503
 L -10.1389,-8.71122 L -10.2031,-8.67052 L -10.2693,-8.63302 L -10.3373,-8.59882 L -10.4068,-8.56799 L -10.4778,-8.54061
 L -10.5501,-8.51674 L -10.6234,-8.49645 L -10.6976,-8.47978 L -10.7726,-8.46678 L -10.8481,-8.45746 L -10.9239,-8.45187
 L -11,-8.45 L -11.0761,-8.45187 L -11.1519,-8.45746 L -11.2274,-8.46678 L -11.3024,-8.47978 L -11.3766,-8.49645
 L -11.4499,-8.51674 L -11.5222,-8.54061 L -11.5932,-8.56799 L -11.6627,-8.59882 L -11.7307,-8.63302 L -11.7969,-8.67052
 L -11.8611,-8.71122 L -11.9233,-8.75503 L -11.9833,-8.80183 L -12.0409,-8.85153 L -12.096,-8.90398 L -12.1485,-8.95908
 L -12.1982,-9.01669 L -12.245,-9.07667 L -12.2888,-9.13887 L -12.3295,-9.20314 L -12.367,-9.26933 L -12.4012,-9.33729
 L -12.432,-9.40684 L -12.4594,-9.47782 L -12.4833,-9.55006 L -12.5035,-9.62338 L -12.5202,-9.69761 L -12.5332,-9.77257
 L -12.5425,-9.84807 L -12.5481,-9.92394 z
M -12.55,-25 L -12.5481,-25.0761 L -12.5425,-25.1519 L -12.5332,-25.2274 L -12.5202,-25.3024 L -12.5035,-25.3766
 L -12.4833,-25.4499 L -12.4594,-25.5222 L -12.432,-25.5932 L -12.4012,-25.6627 L -12.367,-25.7307 L -12.3295,-25.7969
 L -12.2888,-25.8611 L -12.245,-25.9233 L -12.1982,-25.9833 L -12.1485,-26.0409 L -12.096,-26.096 L -12.0409,-26.1485
 L -11.9833,-26.1982 L -11.9233,-26.245 L -11.8611,-26.2888 L -11.7969,-26.3295 L -11.7307,-26.367 L -11.6627,-26.4012
 L -11.5932,-26.432 L -11.5222,-26.4594 L -11.4499,-26.4833 L -11.3766,-26.5035 L -11.3024,-26.5202 L -11.2274,-26.5332
 L -11.1519,-26.5425 L -11.0761,-26.5481 L -11,-26.55 L -10.9239,-26.5481 L -10.8481,-26.5425 L -10.7726,-26.5332
 L -10.6976,-26.5202 L -10.6234,-26.5035 L -10.5501,-26.4833 L -10.4778,-26.4594 L -10.4068,-26.432 L -10.3373,-26.4012
 L -10.2693,-26.367 L -10.2031,-26.3295 L -10.1389,-26.2888 L -10.0767,-26.245 L -10.0167,-26.1982 L -9.95908,-26.1485
 L -9.90398,-26.096 L -9.85153,-26.0409 L -9.80183,-25.9833 L -9.75503,-25.9233 L -9.71122,-25.8611 L -9.67052,-25.7969
 L -9.63302,-25.7307 L -9.59882,-25.6627 L -9.56799,-25.5932 L -9.54061,-25.5222 L -9.51674,-25.4499 L -9.49645,-25.3766
 L -9.47978,-25.3024 L -9.46678,-25.2274 L -9.45746,-25.1519 L -9.45187,-25.0761 L -9.45,-25 L -9.45187,-24.9239
 L -9.45746,-24.8481 L -9.46678,-24.7726 L -9.47978,-24.6976 L -9.49645,-24.6234 L -9.51674,-24.5501 L -9.54061,-24.4778
 L -9.56799,-24.4068 L -9.59882,-24.3373 L -9.63302,-24.2693 L -9.67052,-24.2031 L -9.71122,-24.1389 L -9.75503,-24.0767
 L -9.80183,-24.0167 L -9.85153,-23.9591 L -9.90398,-23.904 L -9.95908,-23.8515 L -10.0167,-23.8018 L -10.0767,-23.755
 L -10.1389,-23.7112 L -10.2031,-23.6705 L -10.2693,-23.633 L -10.3373,-23.5988 L -10.4068,-23.568 L -10.4778,-23.5406
 L -10.5501,-23.5167 L -10.6234,-23.4965 L -10.6976,-23.4798 L -10.7726,-23.4668 L -10.8481,-23.4575 L -10.9239,-23.4519
 L -11,-23.45 L -11.0761,-23.4519 L -11.1519,-23.4575 L -11.2274,-23.4668 L -11.3024,-23.4798 L -11.3766,-23.4965
 L -11.4499,-23.5167 L -11.5222,-23.5406 L -11.5932,-23.568 L -11.6627,-23.5988 L -11.7307,-23.633 L -11.7969,-23.6705
 L -11.8611,-23.7112 L -11.9233,-23.755 L -11.9833,-23.8018 L -12.0409,-23.8515 L -12.096,-23.904 L -12.1485,-23.9591
 L -12.1982,-24.0167 L -12.245,-24.0767 L -12.2888,-24.1389 L -12.3295,-24.2031 L -12.367,-24.2693 L -12.4012,-24.3373
 L -12.432,-24.4068 L -12.4594,-24.4778 L -12.4833,-24.5501 L -12.5035,-24.6234 L -12.5202,-24.6976 L -12.5332,-24.7726
 L -12.5425,-24.8481 L -12.5481,-24.9239 z
M -6,15.145 L -6,-5.77144 L -5.93678,-5.84472 L -5.73899,-6.09817 L -5.55387,-6.36101 L -5.38188,-6.63263
 L -5.22342,-6.91235 L -5.07887,-7.19951 L -4.94859,-7.49342 L -4.83289,-7.79337 L -4.73204,-8.09863 L -4.64629,-8.40848
 L -4.57586,-8.72216 L -4.52089,-9.03891 L -4.48154,-9.35799 L -4.45789,-9.67861 L -4.45,-10 L -4.45789,-10.3214
 L -4.48154,-10.642 L -4.52089,-10.9611 L -4.57586,-11.2778 L -4.64629,-11.5915 L -4.73204,-11.9014 L -4.83289,-12.2066
 L -4.94859,-12.5066 L -5.07887,-12.8005 L -5.22342,-13.0876 L -5.38188,-13.3674 L -5.55387,-13.639 L -5.73899,-13.9018
 L -5.93678,-14.1553 L -6,-14.2286 L -6,-18.4207 L -1.98622,-16.9598 L -1.94536,-16.8539 L -1.77431,-16.468
 L -1.58452,-16.091 L -1.37647,-15.7237 L -1.15064,-15.3671 L -0.907584,-15.022 L -0.647889,-14.6892 L -0.372179,-14.3696
 L -0.0811176,-14.0639 L 0.224592,-13.7728 L 0.544217,-13.4971 L 0.876986,-13.2374 L 1.2221,-12.9944 L 1.57872,-12.7685
 L 1.94599,-12.5605 L 2.32303,-12.3707 L 2.63909,-12.2306 L 15.4045,15.145 z
M 2.4,-20.145 L 2.40434,-20.3216 L 2.41733,-20.4979 L 2.43896,-20.6732 L 2.46917,-20.8473 L 2.50789,-21.0197
 L 2.55501,-21.19 L 2.61044,-21.3578 L 2.67403,-21.5227 L 2.74564,-21.6842 L 2.82508,-21.842 L 2.91218,-21.9958
 L 3.00671,-22.1451 L 3.10845,-22.2895 L 3.21716,-22.4288 L 3.33258,-22.5626 L 3.45442,-22.6906 L 3.58239,-22.8124
 L 3.71618,-22.9278 L 3.85548,-23.0365 L 3.99995,-23.1383 L 4.14923,-23.2328 L 4.30297,-23.3199 L 4.4608,-23.3994
 L 4.62234,-23.471 L 4.7872,-23.5346 L 4.95498,-23.59 L 5.12527,-23.6371 L 5.29767,-23.6758 L 5.47177,-23.706
 L 5.64714,-23.7277 L 5.82336,-23.7407 L 6,-23.745 L 6.17664,-23.7407 L 6.35286,-23.7277 L 6.52823,-23.706
 L 6.70232,-23.6758 L 6.87473,-23.6371 L 7.04502,-23.59 L 7.2128,-23.5346 L 7.37766,-23.471 L 7.5392,-23.3994
 L 7.69703,-23.3199 L 7.85077,-23.2328 L 8.00005,-23.1383 L 8.14452,-23.0365 L 8.28382,-22.9278 L 8.41761,-22.8124
 L 8.54558,-22.6906 L 8.66742,-22.5626 L 8.78284,-22.4288 L 8.89155,-22.2895 L 8.99329,-22.1451 L 9.08782,-21.9958
 L 9.17492,-21.842 L 9.25436,-21.6842 L 9.32597,-21.5227 L 9.38956,-21.3578 L 9.44498,-21.19 L 9.49211,-21.0197
 L 9.53083,-20.8473 L 9.56104,-20.6732 L 9.58266,-20.4979 L 9.59566,-20.3216 L 9.6,-20.145 L 9.59566,-19.9684
 L 9.58266,-19.7921 L 9.56104,-19.6168 L 9.53083,-19.4427 L 9.49211,-19.2703 L 9.44498,-19.1 L 9.38956,-18.9322
 L 9.32597,-18.7673 L 9.25436,-18.6058 L 9.17492,-18.448 L 9.08782,-18.2942 L 8.99329,-18.1449 L 8.89155,-18.0005
 L 8.78284,-17.8612 L 8.66742,-17.7274 L 8.54558,-17.5994 L 8.41761,-17.4776 L 8.28382,-17.3622 L 8.14452,-17.2535
 L 8.00005,-17.1517 L 7.85077,-17.0572 L 7.69703,-16.9701 L 7.5392,-16.8906 L 7.37766,-16.819 L 7.2128,-16.7554
 L 7.04502,-16.7 L 6.87473,-16.6529 L 6.70232,-16.6142 L 6.52823,-16.584 L 6.35286,-16.5623 L 6.17664,-16.5493
 L 6,-16.545 L 5.82336,-16.5493 L 5.64714,-16.5623 L 5.47177,-16.584 L 5.29767,-16.6142 L 5.12527,-16.6529
 L 4.95498,-16.7 L 4.7872,-16.7554 L 4.62234,-16.819 L 4.4608,-16.8906 L 4.30297,-16.9701 L 4.14923,-17.0572
 L 3.99995,-17.1517 L 3.85548,-17.2535 L 3.71618,-17.3622 L 3.58239,-17.4776 L 3.45442,-17.5994 L 3.33258,-17.7274
 L 3.21716,-17.8612 L 3.10845,-18.0005 L 3.00671,-18.1449 L 2.91218,-18.2942 L 2.82508,-18.448 L 2.74564,-18.6058
 L 2.67403,-18.7673 L 2.61044,-18.9322 L 2.55501,-19.1 L 2.50789,-19.2703 L 2.46917,-19.4427 L 2.43896,-19.6168
 L 2.41733,-19.7921 L 2.40434,-19.9684 z
M 23.875,20.145 L 23.878,20.0223 L 23.887,19.9 L 23.9021,19.7782 L 23.923,19.6573 L 23.9499,19.5375
 L 23.9826,19.4193 L 24.0211,19.3028 L 24.0653,19.1883 L 24.115,19.0761 L 24.1702,18.9665 L 24.2307,18.8597
 L 24.2963,18.7561 L 24.367,18.6558 L 24.4425,18.559 L 24.5226,18.4661 L 24.6072,18.3772 L 24.6961,18.2926
 L 24.789,18.2125 L 24.8858,18.137 L 24.9861,18.0663 L 25.0897,18.0007 L 25.1965,17.9402 L 25.3061,17.885
 L 25.4183,17.8353 L 25.5328,17.7911 L 25.6493,17.7526 L 25.7675,17.7199 L 25.8873,17.693 L 26.0082,17.6721
 L 26.13,17.657 L 26.2523,17.648 L 26.375,17.645 L 26.4977,17.648 L 26.62,17.657 L 26.7418,17.6721
 L 26.8627,17.693 L 26.9824,17.7199 L 27.1007,17.7526 L 27.2172,17.7911 L 27.3317,17.8353 L 27.4439,17.885
 L 27.5535,17.9402 L 27.6603,18.0007 L 27.7639,18.0663 L 27.8642,18.137 L 27.961,18.2125 L 28.0539,18.2926
 L 28.1428,18.3772 L 28.2274,18.4661 L 28.3075,18.559 L 28.383,18.6558 L 28.4537,18.7561 L 28.5193,18.8597
 L 28.5798,18.9665 L 28.635,19.0761 L 28.6847,19.1883 L 28.7289,19.3028 L 28.7674,19.4193 L 28.8001,19.5375
 L 28.827,19.6573 L 28.8479,19.7782 L 28.863,19.9 L 28.872,20.0223 L 28.875,20.145 L 28.872,20.2677
 L 28.863,20.39 L 28.8479,20.5118 L 28.827,20.6327 L 28.8001,20.7524 L 28.7674,20.8707 L 28.7289,20.9872
 L 28.6847,21.1017 L 28.635,21.2139 L 28.5798,21.3235 L 28.5193,21.4303 L 28.4537,21.5339 L 28.383,21.6342
 L 28.3075,21.731 L 28.2274,21.8239 L 28.1428,21.9128 L 28.0539,21.9974 L 27.961,22.0775 L 27.8642,22.153
 L 27.7639,22.2237 L 27.6603,22.2893 L 27.5535,22.3498 L 27.4439,22.405 L 27.3317,22.4547 L 27.2172,22.4989
 L 27.1007,22.5374 L 26.9824,22.5701 L 26.8627,22.597 L 26.7418,22.6179 L 26.62,22.633 L 26.4977,22.642
 L 26.375,22.645 L 26.2523,22.642 L 26.13,22.633 L 26.0082,22.6179 L 25.8873,22.597 L 25.7675,22.5701
 L 25.6493,22.5374 L 25.5328,22.4989 L 25.4183,22.4547 L 25.3061,22.405 L 25.1965,22.3498 L 25.0897,22.2893
 L 24.9861,22.2237 L 24.8858,22.153 L 24.789,22.0775 L 24.6961,21.9974 L 24.6072,21.9128 L 24.5226,21.8239
 L 24.4425,21.731 L 24.367,21.6342 L 24.2963,21.5339 L 24.2307,21.4303 L 24.1702,21.3235 L 24.115,21.2139
 L 24.0653,21.1017 L 24.0211,20.9872 L 23.9826,20.8707 L 23.9499,20.7524 L 23.923,20.6327 L 23.9021,20.5118
 L 23.887,20.39 L 23.878,20.2677 z
" stroke="black" fill="lightgray" stroke-width="0.5"/></svg>
